<?xml version="1.0" encoding="UTF-8"?>
<svg id="Capa_1" xmlns="http://www.w3.org/2000/svg" version="1.1" viewBox="0 0 480 480">
  <!-- Generator: Adobe Illustrator 30.2.1, SVG Export Plug-In . SVG Version: 2.1.1 Build 1)  -->
  <defs>
    <style>
      .st0 {
        fill: #888;
      }
    </style>
  </defs>
  <path class="st0" d="M474.6,80.4L242.6.4c-1.7-.6-3.5-.6-5.2,0L5.4,80.4C2.2,81.6,0,84.6,0,88v384c0,4.4,3.6,8,8,8h40c4.4,0,8-3.6,8-8v-248h368v248c0,4.4,3.6,8,8,8h40c4.4,0,8-3.6,8-8V88c0-3.4-2.2-6.4-5.4-7.6ZM40,216v248h-24V160h24v56ZM424,208H56v-16h368v16ZM424,176H56v-16h368v16ZM464,464h-24V160h24v304ZM464,144H16v-50.3L240,16.5l224,77.2v50.3Z"/>
  <path class="st0" d="M395.6,344.8l-29.6-14.8-26.4-52.8c-4.1-8.1-12.4-13.2-21.5-13.2h-156.2c-9.1,0-17.4,5.1-21.5,13.3l-26.4,52.8-29.6,14.8c-2.7,1.4-4.4,4.1-4.4,7.1v112c0,8.8,7.2,16,16,16h32c8.8,0,16-7.2,16-16v-24h192v24c0,8.8,7.2,16,16,16h32c8.8,0,16-7.2,16-16v-112c0-3-1.7-5.8-4.4-7.2ZM154.7,284.4c1.3-2.7,4.1-4.4,7.2-4.4h156.2c3,0,5.8,1.7,7.2,4.4l21.8,43.6h-214.1l21.8-43.6ZM128,464h-32v-24h32v24ZM384,464h-32v-24h32v24ZM384,424H96v-67.1l25.9-12.9h236.2l25.9,12.9v67.1Z"/>
  <path class="st0" d="M152,360h-24c-8.8,0-16,7.2-16,16v16c0,8.8,7.2,16,16,16h24c8.8,0,16-7.2,16-16v-16c0-8.8-7.2-16-16-16ZM152,392h-24v-16h24v16Z"/>
  <path class="st0" d="M352,360h-24c-8.8,0-16,7.2-16,16v16c0,8.8,7.2,16,16,16h24c8.8,0,16-7.2,16-16v-16c0-8.8-7.2-16-16-16ZM352,392h-24v-16h24v16Z"/>
  <path class="st0" d="M280,360h-80c-8.8,0-16,7.2-16,16v16c0,8.8,7.2,16,16,16h80c8.8,0,16-7.2,16-16v-16c0-8.8-7.2-16-16-16ZM280,392h-80v-16h80v16Z"/>
</svg>