<?xml version="1.0" encoding="UTF-8"?>
<svg id="Capa_1" xmlns="http://www.w3.org/2000/svg" version="1.1" viewBox="0 0 480 480">
  <!-- Generator: Adobe Illustrator 30.2.1, SVG Export Plug-In . SVG Version: 2.1.1 Build 1)  -->
  <defs>
    <style>
      .st0 {
        fill: #7f7f7f;
      }
    </style>
  </defs>
  <path class="st0" d="M473.7,133.7L245,1.4c-3.1-1.8-6.8-1.8-10,0L6.3,133.7c-3.9,2.2-6.3,6.8-6.3,11.9v308.9c0,14,9.7,25.5,21.7,25.5h436.7c11.9,0,21.7-11.4,21.7-25.5V145.6c0-5.1-2.4-9.7-6.3-11.9ZM377.8,309.8H102.1v-45.6h275.7v45.6ZM102.1,336.4h275.7v45.6H102.1v-45.6h0ZM377.8,237.7H102.1v-47.3h275.7v47.3ZM102.1,408.5h275.7v45H102.1v-45h0ZM457.4,453.5h-57V177.1c0-7.3-5.1-13.3-11.3-13.3H90.9c-6.2,0-11.3,5.9-11.3,13.3v276.3H22.6V153.9L240,28.1l217.4,125.8v299.6Z"/>
</svg>