<?xml version="1.0" encoding="UTF-8"?>
<svg id="Capa_1" xmlns="http://www.w3.org/2000/svg" version="1.1" viewBox="0 0 480 480">
  <!-- Generator: Adobe Illustrator 30.2.1, SVG Export Plug-In . SVG Version: 2.1.1 Build 1)  -->
  <defs>
    <style>
      .st0 {
        fill: #7f7f7f;
      }
    </style>
  </defs>
  <g id="_x31_5">
    <g>
      <path class="st0" d="M117.3,111.9h6.9c10.4,0,18.9-8.6,18.9-19.2V19.7c0-10.6-8.5-19.2-18.9-19.2h-6.9c-10.4,0-18.9,8.6-18.9,19.2v72.9c0,10.6,8.5,19.2,18.9,19.2Z"/>
      <path class="st0" d="M359.7,111.4h6.9c10.4,0,18.9-8.6,18.9-19.2V19.2c0-10.6-8.5-19.2-18.9-19.2h-6.9c-10.4,0-18.9,8.6-18.9,19.2v72.9c0,10.6,8.5,19.2,18.9,19.2Z"/>
      <path class="st0" d="M449.3,39.6h-48.5v57.6c0,19.2-15.4,29.8-34.3,29.8h-6.9c-18.9,0-34.3-15.6-34.3-34.9v-52.6h-167v53.1c0,19.2-15.4,34.9-34.3,34.9h-6.9c-18.9,0-34.3-15.6-34.3-34.9v-53.1H30.7C13.8,39.6,0,53.6,0,70.8v377.9c0,17.2,13.8,31.3,30.7,31.3h418.6c16.9,0,30.7-14,30.7-31.3V70.8c0-17.2-13.8-31.3-30.7-31.3ZM449.3,448.7H30.7V163.4s418.6,0,418.6,0v285.4s0,0,0,0Z"/>
      <path class="st0" d="M255.9,259.1h55.2c2.2,0,4-1.8,4-4v-48.6c0-2.2-1.8-4-4-4h-55.2c-2.2,0-4,1.8-4,4v48.6c0,2.2,1.8,4,4,4Z"/>
      <path class="st0" d="M345.9,259.1h55.2c2.2,0,4-1.8,4-4v-48.6c0-2.2-1.8-4-4-4h-55.2c-2.2,0-4,1.8-4,4v48.6c0,2.2,1.8,4,4,4Z"/>
      <path class="st0" d="M75.8,338.7h55.2c2.2,0,4-1.8,4-4v-48.6c0-2.2-1.8-4-4-4h-55.2c-2.2,0-4,1.8-4,4v48.6c0,2.2,1.8,4,4,4Z"/>
      <path class="st0" d="M165.8,338.7h55.2c2.2,0,4-1.8,4-4v-48.6c0-2.2-1.8-4-4-4h-55.2c-2.2,0-4,1.8-4,4v48.6c0,2.2,1.8,4,4,4Z"/>
      <path class="st0" d="M255.9,338.7h55.2c2.2,0,4-1.8,4-4v-48.6c0-2.2-1.8-4-4-4h-55.2c-2.2,0-4,1.8-4,4v48.6c0,2.2,1.8,4,4,4Z"/>
      <path class="st0" d="M345.9,338.7h55.2c2.2,0,4-1.8,4-4v-48.6c0-2.2-1.8-4-4-4h-55.2c-2.2,0-4,1.8-4,4v48.6c0,2.2,1.8,4,4,4Z"/>
      <path class="st0" d="M131,361.6h-55.2c-2.2,0-4,1.8-4,4v48.6c0,2.2,1.8,4,4,4h55.2c2.2,0,4-1.8,4-4v-48.6c0-2.2-1.8-4-4-4Z"/>
      <path class="st0" d="M221,361.6h-55.2c-2.2,0-4,1.8-4,4v48.6c0,2.2,1.8,4,4,4h55.2c2.2,0,4-1.8,4-4v-48.6c0-2.2-1.8-4-4-4Z"/>
      <path class="st0" d="M311,361.6h-55.2c-2.2,0-4,1.8-4,4v48.6c0,2.2,1.8,4,4,4h55.2c2.2,0,4-1.8,4-4v-48.6c0-2.2-1.8-4-4-4Z"/>
      <path class="st0" d="M401,361.6h-55.2c-2.2,0-4,1.8-4,4v48.6c0,2.2,1.8,4,4,4h55.2c2.2,0,4-1.8,4-4v-48.6c0-2.2-1.8-4-4-4Z"/>
    </g>
  </g>
</svg>