<?xml version="1.0" encoding="UTF-8"?>
<svg id="Capa_1" xmlns="http://www.w3.org/2000/svg" version="1.1" viewBox="0 0 480 480">
  <!-- Generator: Adobe Illustrator 30.2.1, SVG Export Plug-In . SVG Version: 2.1.1 Build 1)  -->
  <defs>
    <style>
      .st0 {
        fill: #888;
      }
    </style>
  </defs>
  <path class="st0" d="M464.8,85.4c0-20.3-16.6-36.9-36.9-36.9h-2.7v-15c0-18.6-15-33.6-33.6-33.6h-.9c-18.6,0-33.6,15-33.6,33.6v15h-32.8v-15c0-18.6-15-33.6-33.6-33.6h-.9c-18.6,0-33.6,15-33.6,33.6v15h-32.8v-15c0-18.6-15-33.6-33.6-33.6h-.9c-18.6,0-33.6,15-33.6,33.6v15h-32.8v-15C122.6,15,107.6,0,89,0h-.9c-18.5,0-33.6,15-33.6,33.6v15h-2.6c-20.3,0-36.9,16.6-36.9,36.9v357.8c0,20.3,16.6,36.9,36.9,36.9h375.9c20.3,0,36.9-16.6,36.9-36.9V139.7h0v-54.3h0ZM371.6,33.6c0-10.5,8.6-19,19-19h.9c10.5,0,19,8.6,19,19v44.4c0,10.5-8.6,19-19,19h-.9c-10.5,0-19-8.6-19-19v-44.4ZM289.8,14.6h.9c10.5,0,19,8.6,19,19v22.1h0v22.3c0,10.5-8.6,19-19,19h-.9c-10.5,0-19-8.6-19-19v-22.1h0v-22.3c0-10.5,8.6-19,19-19ZM189,14.6h.9c10.5,0,19,8.6,19,19v44.5c0,10.5-8.6,19-19,19h-.9c-10.5,0-19-8.6-19-19v-44.6c0-10.5,8.6-18.9,19-18.9ZM69.1,33.6c0-10.5,8.6-19,19-19h.9c10.5,0,19,8.6,19,19v44.5c0,10.5-8.6,19-19,19h-.9c-10.5,0-19-8.6-19-19v-44.5ZM51.9,63.2h2.7v15c0,18.5,15,33.6,33.6,33.6h.9c18.6,0,33.6-15,33.6-33.6v-15h32.8v15c0,18.5,15,33.6,33.6,33.6h.9c18.6,0,33.6-15,33.6-33.6v-15h32.8v15c0,18.5,15,33.6,33.6,33.6h.9c18.6,0,33.6-15,33.6-33.6v-15h32.8v15c0,18.5,15,33.6,33.6,33.6h.9c18.6,0,33.6-15,33.6-33.6v-15h2.7c12.3,0,22.4,10,22.4,22.3v47H29.6v-47c0-12.3,10-22.3,22.3-22.3ZM450.2,443.3c0,12.3-10,22.4-22.4,22.4H52c-12.3,0-22.4-10-22.4-22.4V147h420.6v296.3Z"/>
  <path class="st0" d="M85.2,436.5h309.4c14.6,0,26.5-11.9,26.5-26.5v-207.4c0-14.6-11.9-26.5-26.5-26.5H85.2c-14.6,0-26.5,11.9-26.5,26.5v207.4c0,14.7,11.9,26.5,26.5,26.5ZM73.3,202.6c0-6.6,5.3-12,12-12h309.4c6.6,0,12,5.3,12,12v207.4c0,6.6-5.3,12-12,12H85.2c-6.6,0-12-5.3-12-12v-207.4h0Z"/>
  <path class="st0" d="M111.7,297.2h50.5c8,0,14.6-6.6,14.6-14.6v-50.5c0-8-6.6-14.6-14.6-14.6h-50.5c-8,0-14.6,6.6-14.6,14.6v50.5c0,8.1,6.6,14.6,14.6,14.6ZM162.1,282.7v7.3-7.3ZM111.7,232.2h50.5v50.5h-50.5v-50.5Z"/>
  <path class="st0" d="M111.7,403.6h50.5c8,0,14.6-6.6,14.6-14.6v-50.4c0-8-6.6-14.6-14.6-14.6h-50.5c-8,0-14.6,6.6-14.6,14.6v50.5c0,8,6.6,14.5,14.6,14.5ZM162.1,389.1v7.3-7.3ZM111.7,338.6h50.5v50.5h-50.5v-50.5Z"/>
  <path class="st0" d="M214.6,297.2h50.5c8,0,14.6-6.6,14.6-14.6v-50.5c0-8-6.6-14.6-14.6-14.6h-50.5c-8,0-14.6,6.6-14.6,14.6v50.5c0,8.1,6.6,14.6,14.6,14.6ZM214.6,232.2h50.5v50.5h-50.5v-50.5Z"/>
  <path class="st0" d="M214.6,403.6h50.5c8,0,14.6-6.6,14.6-14.6v-50.4c0-8-6.6-14.6-14.6-14.6h-50.5c-8,0-14.6,6.6-14.6,14.6v50.5c0,8,6.6,14.5,14.6,14.5ZM214.6,338.6h50.5v50.5h-50.5v-50.5Z"/>
  <path class="st0" d="M317.5,297.2h50.5c8,0,14.6-6.6,14.6-14.6v-50.5c0-8-6.6-14.6-14.6-14.6h-50.5c-8,0-14.6,6.6-14.6,14.6v50.5c0,8.1,6.6,14.6,14.6,14.6ZM317.5,232.2h50.5v50.5h-50.5v-50.5Z"/>
  <path class="st0" d="M317.5,403.6h50.5c8,0,14.6-6.6,14.6-14.6v-50.4c0-8-6.6-14.6-14.6-14.6h-50.5c-8,0-14.6,6.6-14.6,14.6v50.5c0,8,6.6,14.5,14.6,14.5ZM317.5,338.6h50.5v50.5h-50.5v-50.5Z"/>
</svg>