<?xml version="1.0" encoding="UTF-8"?>
<svg id="Capa_1" xmlns="http://www.w3.org/2000/svg" version="1.1" viewBox="0 0 480 480">
  <!-- Generator: Adobe Illustrator 30.2.1, SVG Export Plug-In . SVG Version: 2.1.1 Build 1)  -->
  <defs>
    <style>
      .st0 {
        fill: #888;
      }
    </style>
  </defs>
  <path class="st0" d="M123.4,233.5c25.7,47.9,66,91.5,101.8,128.6l.3.3c1.7,1.7,7,6.8,14.4,6.8h.3c7.4,0,12.7-5.1,14.4-6.8l.3-.3c35.8-37.1,76.1-80.7,101.8-128.6,14.4-27,22.9-53.1,25.2-77.8,2.8-28.5-3.1-57.2-16.7-82.3h0C341,28.9,293.1.8,240.2,0h-.3c-52.9.8-100.8,28.9-125,73.3-13.6,25.2-19.4,53.8-16.7,82.3,2.3,24.7,10.8,50.8,25.2,77.8h0ZM134,83.6c20.4-37.5,61-61.2,106.1-61.9,45,.7,85.7,24.4,106,61.9,22.2,41.8,19.4,87.4-8.5,139.7-24.2,45.1-62.9,87.1-97.5,123-34.6-35.9-73.3-77.8-97.5-123-28-52.2-30.8-97.9-8.6-139.6h0Z"/>
  <path class="st0" d="M240,217.6c42.1,0,76.3-33.8,76.3-75.4s-34.2-75.4-76.3-75.4-76.3,33.8-76.3,75.4,34.2,75.4,76.3,75.4ZM240,88.5c30.1,0,54.6,24.1,54.6,53.7s-24.5,53.7-54.6,53.7-54.6-24.1-54.6-53.7,24.5-53.7,54.6-53.7Z"/>
  <path class="st0" d="M478.9,459.8l-59.8-148.6c-2.2-5.6-7.7-9.3-13.7-9.2h-69.1c-5.7,0-10.3,4.6-10.3,10.3s4.6,10.3,10.3,10.3h65.1l12.7,31.6-218.6,73.9-76.5-105.5h24.5c5.7,0,10.3-4.6,10.3-10.3s-4.6-10.3-10.3-10.3h-78.5c-6.3,0-11.9,4-14,10L.8,460.5c-2.6,7.7,1.5,16.1,9.2,18.7,1.5.5,3.1.8,4.7.8h450.5c8.1,0,14.7-6.6,14.7-14.7,0-1.9-.4-3.8-1.1-5.5h0ZM23,459.4l46.4-136.8h24.3l81.5,112.4-72.2,24.4H23ZM167.4,459.4l160.9-54.4,39.4,54.4h-200.3ZM393.2,459.4l-44.5-61.3,73.2-24.8,34.6,86.1h-63.4Z"/>
</svg>