<?xml version="1.0" encoding="UTF-8"?>
<svg id="Capa_1" xmlns="http://www.w3.org/2000/svg" version="1.1" viewBox="0 0 480 480">
  <!-- Generator: Adobe Illustrator 30.2.1, SVG Export Plug-In . SVG Version: 2.1.1 Build 1)  -->
  <defs>
    <style>
      .st0 {
        fill: #7f7f7f;
      }
    </style>
  </defs>
  <path class="st0" d="M250.3,0c-.9.9,6.5,1,12.1,2,44.3,7.8,80.1,37.9,95.3,80.2,8.1,22.6,10.7,46.2,8.6,70.2-5.2,37-20.6,68.7-38.7,101.6h53.1c6.2,0,11.1,3.2,13.6,8.9l85.8,199.3v7.2c-2.8,5-6.2,10.5-13.3,10.5H13.3c-7.1,0-10.3-5.4-13.3-10.3v-7.5l85.8-199.2c2.5-5.8,7.4-8.9,13.6-8.9h53.1c-16.9-30.2-35-68.1-38.6-101.7-2.6-24,.5-47.8,8.3-70.3C138.7,34.9,179.5,5.5,227.8,0h22.5ZM240,330.7c23.5-29.2,43.6-57.8,61.9-88.7,11.4-20,21.4-39.4,28.8-61.1,11.1-30.6,10.9-63.5-1.6-93.6-20.9-50.3-78.1-71.5-127.6-51.5-22.8,9.2-40.4,26.7-50.1,49.3-13.3,30.9-13.3,64.9-2,96.5,18.6,52,55.6,105.5,90.6,149.1ZM193.2,316.3l-23.3-33.9h-61.8s-42.1,98.8-42.1,98.8l127.1-64.9ZM245.9,451.8h29.6c0,0,138.1-71.9,138.1-71.9l-41.8-97.5h-61.8c-18.4,28.2-37.7,54.1-58.9,79.3-5.7,6.7-14.5,7.1-21.1,1.6l-19.7-24-51,26.1,86.4,86.5ZM35.6,451.7h170.2s-72.7-72.9-72.7-72.9l-84.8,43.4-12.6,29.5ZM444.4,451.7l-19.6-45.8-87.7,45.7h107.4Z"/>
  <path class="st0" d="M238.1,84.9c24.1-1.1,43.1,17.7,44.1,40.4,1.1,23.4-17.1,42.9-40,44.1-23.3,1.2-43.1-16.7-44.4-39.6s16.2-43.7,40.4-44.9ZM235.4,113.9c-8.1,2.9-11.3,11.6-8.4,18.6s10.6,10.3,17.3,8c7.7-2.6,11.5-10.7,9.1-17.7-2.5-7.3-10.2-11.7-18-8.9Z"/>
</svg>