<?xml version="1.0" encoding="UTF-8"?>
<svg id="Capa_1" xmlns="http://www.w3.org/2000/svg" version="1.1" viewBox="0 0 480 480">
  <!-- Generator: Adobe Illustrator 30.2.1, SVG Export Plug-In . SVG Version: 2.1.1 Build 1)  -->
  <defs>
    <style>
      .st0 {
        fill: #7f7f7f;
        fill-rule: evenodd;
      }
    </style>
  </defs>
  <g id="Icon">
    <path class="st0" d="M457.5,187.5c.8-5.5-.6-11-3.7-15.3-3.2-4.2-7.8-6.6-12.8-6.6H39.7c-4.9,0-9.6,2.4-12.8,6.6-3.2,4.2-4.5,9.8-3.7,15.3,0,0,22.8,157,34,234.5,4.9,33.4,30.5,58,60.5,58h245.3c30,0,55.6-24.5,60.5-58l34-234.5ZM421.3,203.4l-30.8,212.6c-2.2,15.2-13.8,26.4-27.5,26.4H117.7c-13.6,0-25.3-11.2-27.5-26.4l-30.8-212.6h361.9Z"/>
    <path class="st0" d="M388.4,167.8L321.6,11.4c-4.7-11.1-15-14.7-22.9-8s-10.5,21.1-5.7,32.2l66.9,156.4c4.7,11.1,15,14.7,22.9,8,7.9-6.7,10.5-21.1,5.7-32.2h0Z"/>
    <path class="st0" d="M120.9,192L187.8,35.5c4.7-11.1,2.2-25.5-5.7-32.2s-18.2-3.1-22.9,8l-66.9,156.4c-4.7,11.1-2.2,25.5,5.7,32.2,7.9,6.7,18.2,3.1,22.9-8h0Z"/>
    <path class="st0" d="M223.6,272.5v100.6c0,10.4,7.5,18.9,16.7,18.9s16.7-8.5,16.7-18.9v-100.6c0-10.4-7.5-18.9-16.7-18.9s-16.7,8.5-16.7,18.9Z"/>
    <path class="st0" d="M134.4,272.5v100.6c0,10.4,7.5,18.9,16.7,18.9s16.7-8.5,16.7-18.9v-100.6c0-10.4-7.5-18.9-16.7-18.9s-16.7,8.5-16.7,18.9Z"/>
    <path class="st0" d="M312.8,272.5v100.6c0,10.4,7.5,18.9,16.7,18.9s16.7-8.5,16.7-18.9v-100.6c0-10.4-7.5-18.9-16.7-18.9s-16.7,8.5-16.7,18.9Z"/>
    <path class="st0" d="M463.3,165.6H17.4c-9.2,0-16.7,8.5-16.7,18.9s7.5,18.9,16.7,18.9h445.9c9.2,0,16.7-8.5,16.7-18.9s-7.5-18.9-16.7-18.9Z"/>
  </g>
</svg>