<?xml version="1.0" encoding="UTF-8"?>
<svg id="Capa_1" xmlns="http://www.w3.org/2000/svg" version="1.1" viewBox="0 0 480 480">
  <!-- Generator: Adobe Illustrator 30.2.1, SVG Export Plug-In . SVG Version: 2.1.1 Build 1)  -->
  <defs>
    <style>
      .st0 {
        fill: #888;
      }
    </style>
  </defs>
  <g id="Kurv">
    <g>
      <path class="st0" d="M480,187.5c0-20.4-15.7-37.1-34.8-37.1h-31L291.9,20.2c-3.5-3.8-9.2-3.8-12.8,0-3.5,3.8-3.5,9.8,0,13.6l109.4,116.5H91.5l109.4-116.4c3.5-3.8,3.5-9.8,0-13.6s-9.2-3.8-12.8,0l-122.3,130.1h-31c-19.2,0-34.8,16.7-34.8,37.1s11.8,32.5,27.3,36.1l23.3,218.8c2.3,21.4,19.2,37.5,39.4,37.5h300.1c20.2,0,37.1-16.1,39.4-37.5l23.3-218.8c15.6-3.7,27.3-18.5,27.3-36.1h0ZM411.4,440.2c-1.3,11.6-10.4,20.3-21.4,20.3H90c-11,0-20.2-8.8-21.4-20.3l-22.9-215.7h388.7l-23,215.7ZM72.6,169.6h334.8M416,169.6h29c9.2,0,16.7,8,16.7,17.8s-7.5,17.8-16.7,17.8h0H34.8c-9.2,0-16.7-8-16.7-17.8s7.5-17.8,16.7-17.8h29"/>
      <path class="st0" d="M238.7,428.7c5,0,9-4.3,9-9.6v-158.7c0-5.3-4.1-9.6-9-9.6s-9,4.3-9,9.6v158.8c0,5.3,4.1,9.6,9,9.6h0Z"/>
      <path class="st0" d="M148.2,428.7h1.1c5-.7,8.5-5.4,7.9-10.7l-18.1-158.8c-.6-5.3-5.2-9.1-10-8.4-5,.7-8.5,5.4-7.9,10.7l18.1,158.8c.5,4.9,4.4,8.5,9,8.5h0Z"/>
      <path class="st0" d="M328.1,428.7h1.1c4.5,0,8.4-3.6,9-8.5l18.1-158.8c.6-5.3-2.9-10.1-7.9-10.7-5-.7-9.5,3.1-10,8.4l-18.1,158.8c-.6,5.3,2.9,10.1,7.9,10.7h0Z"/>
    </g>
  </g>
</svg>