<?xml version="1.0" encoding="UTF-8"?>
<svg id="Capa_1" xmlns="http://www.w3.org/2000/svg" version="1.1" viewBox="0 0 410.8 480">
  <!-- Generator: Adobe Illustrator 30.2.1, SVG Export Plug-In . SVG Version: 2.1.1 Build 1)  -->
  <defs>
    <style>
      .st0 {
        fill: #7f7f7f;
      }
    </style>
  </defs>
  <g id="Layer_2">
    <path class="st0" d="M205.4,240.4c-66.2,0-119.8-53.6-119.8-119.8S139.2.8,205.4.8s119.8,53.6,119.8,119.8-53.6,119.8-119.8,119.8ZM205.4,35c-47.3,0-85.6,38.3-85.6,85.6s38.3,85.6,85.6,85.6,85.6-38.3,85.6-85.6-38.3-85.6-85.6-85.6ZM359.4,480H51.3c-28.4,0-51.3-23-51.3-51.3,0-85.1,69-154,154-154h102.7c85.1,0,154,69,154,154s-23,51.3-51.3,51.3ZM154,308.9c-66.2,0-119.8,53.6-119.8,119.8s7.7,17.1,17.1,17.1h308.1c9.5,0,17.1-7.7,17.1-17.1,0-66.2-53.6-119.8-119.8-119.8h-102.7Z"/>
  </g>
</svg>