<?xml version="1.0" encoding="UTF-8"?>
<svg id="Capa_1" xmlns="http://www.w3.org/2000/svg" version="1.1" viewBox="0 0 480 418.8">
  <!-- Generator: Adobe Illustrator 30.3.0, SVG Export Plug-In . SVG Version: 2.1.3 Build 182)  -->
  <defs>
    <style>
      .st0 {
        fill: #7f7f7f;
      }
    </style>
  </defs>
  <g id="Y0gP1y.tif">
    <path class="st0" d="M373.1,391.8v-17.7c0,0-266.9,0-266.9,0v19c-1,12.3-9.2,21.8-19.9,23.5H22.3c-10.8-1.8-18.7-11.1-19.7-23.6l.2-149.8c0-18.1,11.8-45,24.3-57.1l29.6-27.3-26.6-6.3c-2.9-.7-4.8-3.9-5.3-7v-27.3c0-4,3.4-7.6,7-7.6h38c3.8,0,6.6,4.3,6.6,8.1v15.1c0,0,3.1-4.5,3.1-4.5,3.6-5.3,6.7-11,9.2-17.1l14.6-36.1c7-17.3,28.9-33.4,45.4-33.4h182.3c16.3,0,38.1,16.4,45.2,34.2l11,27.6c3.5,8.7,7.1,17.1,12.2,24.7l3.2,4.8v-14.8c.1-4.7,3.4-8.5,7.6-8.4h37.2c3.8,0,6.9,4.1,6.9,8.2v26.2c-.3,3.3-2.2,6.8-5.2,7.5l-26.7,6.3,30.2,27.8c12.7,13,23.8,39,23.9,58.2v147.7c-.8,12.8-8.8,22.6-20,24.1h-63.5c-11.2-1.6-19.5-11.7-20-24.8ZM381.1,127.7l-5.4-12-12.7-31.9c-4.9-12.1-21.5-24.3-32.4-24.3h-181.8c-11.3,0-27.8,12.2-33,25.3l-10.6,26.5c-2.2,5.6-4.6,10.9-7.1,16.5h283.1ZM61.8,142.8v-15.5s-22.3,0-22.3,0v10.3s22.3,5.1,22.3,5.1ZM439.8,137.7v-10.3s-22.5,0-22.5,0v15.5s22.5-5.2,22.5-5.2ZM257.2,231.7c1.2-1.4,3.2-1.8,4.9-2h85.7s21.1-24.2,21.1-24.2l54-24.8-15.4-14.8c-6-6.6-11.2-14-16.4-21.4H88c-6,9-12.4,18.1-20.1,25.3l-11.6,10.9,53.7,24.7,21.2,24.3h85.5c2.2.1,4.2.7,5.6,2.4l17.2,19.7,17.6-20.1ZM39.3,229.7h56.6s7.4-8.4,7.4-8.4l-1.5-1.7-58.6-26.9-7,6.5c-4.9,4.6-8.1,10.6-11.2,16.9,1.6,8.8,6,13.6,14.3,13.6ZM441.4,229.6c7.1,0,11.9-6.1,12.7-13.6-2.9-5.8-5.7-11.5-10.1-15.7l-8-7.6-58.5,26.9c-.6.3-1.4,1.5-1.3,2l7.2,8.1h58ZM462,332.3v-43.2c.1,0-7.6,0-7.6,0v10c-.7,17.1-12.6,31.5-27.7,32.2l-23.7.2c-4.2,0-7.5-3.5-7.6-8.2s2.8-8.4,6.8-8.5l23.6-.2c7.7,0,13.9-7.9,14-16.6v-9c0,0-16.7.2-16.7.2-7.6.6-14.1,5.2-19.8,10.4-3.2,3-7.7.9-9.7-2.5-6.8-11.8,18-24.6,29-24.7l39.5-.3v-24.9c0-3.5-.5-6.9-1.1-10.3-5.7,6.1-12.2,9.4-19.8,9.4h-60.9c-1.7,0-3.5-.7-4.7-2l-10-11.4-9.9,11.3c-1.4,1.6-3.4,2.2-5.6,2.2h-85.3s-20.5,23.5-20.5,23.5c-2.7,2.6-6.4,2.8-9.2.3l-20.7-23.8h-85.3c-2.3,0-4.4-.6-5.9-2.4l-9.7-11.1-9.7,11.1c-1.2,1.4-3,2.1-4.9,2.4h-60.9c-7.6,0-14.1-3.3-19.8-9.4-.6,2.7-1.1,5.7-1.1,8.7v26.5s39.1.3,39.1.3c13.7,0,38.9,15.7,28.1,26.5s-7.2,2.4-10.5-.9c-4.8-4.9-11.4-8.7-18-8.8l-16.5-.2v10.5c.7,7.9,6.6,14.9,13.6,15l24.1.3c4,0,6.7,4.4,6.7,8.4s-2.7,8.2-6.6,8.1h-24.6c-14.8-.7-26.7-14.5-27.7-31.2v-11.1c0,0-7.8,0-7.8,0v42.9c0,13.8,9.9,25.3,21.9,25.3h53c0,0,18.8-21.2,18.8-21.2,7.6-7.8,17.5-11.8,27.6-12.8h198.6c10.6,1.1,21,5.3,28.5,13.9l17.8,20.3h56.7c11.8-.1,21.7-11.3,21.7-25.1ZM362.6,357.4l-6.4-7.9c-5.6-4.8-12.4-9.4-20-9.4h-196.8c-7.2.6-13.7,3.7-19.3,8.7l-7.1,8.6h249.6ZM395,399.9h59.4c4.1,0,7.6-3.6,7.6-8.4v-26.2c-6.9,5.6-14,8.8-22.2,8.8h-52.2s0,17.4,0,17.4c0,4.3,3.2,8.4,7.3,8.4ZM91.5,390.8v-16.7s-51.6,0-51.6,0c-8.5,0-15.8-3.1-22.8-8.7v26.1c0,4.9,3.6,8.4,7.8,8.4h59.1c4.4,0,7.5-4,7.5-9.1Z"/>
  </g>
</svg>