<?xml version="1.0" encoding="UTF-8"?>
<svg id="Layer_1" xmlns="http://www.w3.org/2000/svg" version="1.1" viewBox="0 0 453.1 86.8">
  <g>
    <polyline fill="#fff" points="181.2 59.3 210.8 59.3 210.8 50.3 183.5 50.3 183.5 33 208.5 33 208.5 25.7 183.5 25.7 183.5 10.4 210.8 10.4 210.8 1.4 174 1.4 174 49.6"/>
    <path fill="#fff" d="M239.1,60.8L211.9,1.4h10.7l17.3,38.7L257.3,1.4h10.7l-27.2,59.4h-1.6Z"/>
    <path fill="#fff" d="M270.3,59.3V1.4h36.8v9h-27.3v15.3h25v7.3h-25v17.3h27.3v9h-36.8Z"/>
    <path fill="#fff" d="M361.5,60.9l-37.8-39.4v37.7h-9V.2h.8l37.8,40.2V1.4h9v59.5h-.8Z"/>
    <path fill="#fff" d="M381,59.3V10.4h-16V1.4h41.6v9h-16v48.9h-9.5Z"/>
    <path fill="#fff" d="M428.6,60.1c-4.7,0-9.1-1-13.3-3-4.2-2-7.3-4.9-9.2-8.6l6.4-5.7c1.4,2.5,3.7,4.6,6.9,6.3,3.2,1.7,6.4,2.5,9.5,2.5s6.3-.7,8.8-2.1c2.5-1.4,3.8-3.3,3.8-5.8s-.8-3.4-2.4-4.5c-1.6-1.2-3.8-2.1-6.6-3l-12.4-3.8c-3.7-1.2-6.7-3-9-5.5-2.3-2.5-3.5-5.6-3.5-9.3s1.1-6.3,3.2-9c2.1-2.7,4.8-4.6,7.9-6,3.2-1.3,6.5-2,10-2,9.4,0,16.3,3,20.7,9.1l-6.9,5.6c-1.5-2-3.5-3.6-6-4.6-2.5-1.1-5.1-1.6-7.7-1.6s-5.2.7-7.6,2.1c-2.4,1.4-3.6,3.4-3.6,6s2.5,5.6,7.4,7.1l13,3.9c9,2.8,13.6,7.6,13.6,14.4s-2.2,9.2-6.7,12.5c-4.5,3.3-9.9,5-16.2,5Z"/>
  </g>
  <g>
    <path fill="#a48b5c" d="M64.3,59.3L91.9,0h2.1l27.6,59.3h-17.3l-2.2-5.7h-18.2l-2.2,5.7h-17.3ZM88.3,41.5h9.3l-4.7-11.6-4.6,11.6Z"/>
    <path fill="#a48b5c" d="M122.8,59.3V1.4h24.2c5.4,0,9.9,1.9,13.7,5.7s5.7,8.3,5.7,13.6-.7,6-2.2,8.7c-1.5,2.7-3.4,4.8-5.8,6.5l16.4,23.3h-18.3l-14.1-20.1h-4.1v20.1h-15.4ZM138.2,25.3h8.1c1.3,0,2.3-.5,3.2-1.4s1.4-2,1.4-3.2-.5-2.3-1.4-3.2-2-1.4-3.2-1.4h-8.1v9.2Z"/>
  </g>
  <g>
    <path fill="#a48b5c" d="M380.2,86.3c-.6.6-1.3.9-2.2.9s-1.6-.3-2.2-.9c-.6-.6-.9-1.3-.9-2.2s.3-1.6.9-2.2c.6-.6,1.3-.9,2.2-.9s1.6.3,2.2.9c.6.6.9,1.3.9,2.2s-.3,1.6-.9,2.2Z"/>
    <path fill="#a48b5c" d="M392.9,87.2c-3.1,0-5.7-1.1-7.8-3.2-2.2-2.2-3.2-4.8-3.2-7.8s1.1-5.7,3.2-7.8c2.2-2.1,4.8-3.2,7.8-3.2s3.8.5,5.5,1.5c1.7,1,3,2.3,4,4l-5.1,3c-.4-.9-1-1.5-1.8-2-.8-.5-1.7-.8-2.6-.8-1.4,0-2.6.5-3.6,1.6s-1.5,2.3-1.5,3.8.5,2.7,1.5,3.8,2.2,1.6,3.6,1.6,1.8-.2,2.6-.7,1.4-1.2,1.8-2l5.1,3c-1,1.7-2.3,3-4,4-1.7,1-3.5,1.5-5.5,1.5Z"/>
    <path fill="#a48b5c" d="M421.7,83.9c-2.2,2.2-4.7,3.2-7.8,3.2s-5.6-1.1-7.8-3.2c-2.2-2.2-3.2-4.8-3.2-7.8s1.1-5.6,3.2-7.8c2.2-2.1,4.7-3.2,7.8-3.2s5.6,1.1,7.8,3.2c2.2,2.2,3.2,4.8,3.2,7.8s-1.1,5.6-3.2,7.8ZM410.4,79.9c1,1,2.2,1.6,3.6,1.6s2.6-.5,3.6-1.6,1.5-2.3,1.5-3.8-.5-2.7-1.5-3.8-2.2-1.6-3.6-1.6-2.6.5-3.6,1.6-1.5,2.3-1.5,3.8.5,2.7,1.5,3.8Z"/>
    <path fill="#a48b5c" d="M426.4,86.8l3.7-22h.7l8.9,13.6,8.9-13.6h.7l3.7,22h-6l-1.4-8.6-5.5,8.6h-.7l-5.5-8.6-1.5,8.6h-6Z"/>
  </g>
  <path fill="#a48b5c" fill-rule="evenodd" d="M8.8,13.8h0s-.9,0-.9,0L0,.1h41.9c12.1,0,25.3,6.6,27.5,22.2h-14.7c-2.1-5.9-6.5-8.6-12.8-8.6h0s-33.1,0-33.1,0Z"/>
  <path fill="#a48b5c" d="M54.9,36.5c-1.6,6.2-6.6,9.4-12.9,9.4-8.8,0-14.4-7.5-14.4-16.1s2-10.2,5.4-13.1H14.8c-1.7,3.7-2.6,8.1-2.7,13.1,0,19.7,15,29.7,29.8,29.6,12.4,0,25.4-6.5,27.5-22.9h-14.6Z"/>
</svg>
