<?xml version="1.0" encoding="UTF-8"?>
<svg id="Capa_1" xmlns="http://www.w3.org/2000/svg" version="1.1" viewBox="0 0 480 480">
  <!-- Generator: Adobe Illustrator 30.2.1, SVG Export Plug-In . SVG Version: 2.1.1 Build 1)  -->
  <defs>
    <style>
      .st0 {
        fill: #272727;
      }
    </style>
  </defs>
  <path class="st0" d="M262.5.9h-44.9v31.5c-76.2,10.9-134.8,76.5-134.8,155.6v67.4L15.4,390.2h449.2l-67.4-134.8v-67.4c0-79.2-58.6-144.8-134.8-155.6V.9h0ZM391.9,345.2H88l34.9-69.7c3.1-6.3,4.8-13.1,4.8-20.1v-67.4c0-62,50.3-112.3,112.3-112.3s112.3,50.3,112.3,112.3v67.4c0,7,1.6,13.8,4.8,20.1l34.8,69.7h0ZM176.5,435.1c9.3,26.2,34.3,44.9,63.5,44.9s54.3-18.7,63.5-44.9h-127.1.1Z"/>
</svg>