<?xml version="1.0" encoding="UTF-8"?>
<svg id="Capa_1" xmlns="http://www.w3.org/2000/svg" version="1.1" viewBox="0 0 480 480">
  <!-- Generator: Adobe Illustrator 30.2.1, SVG Export Plug-In . SVG Version: 2.1.1 Build 1)  -->
  <defs>
    <style>
      .st0 {
        fill: #272727;
      }
    </style>
  </defs>
  <path class="st0" d="M52.1,51.4v102.7h102.7V51.4H52.1ZM.7,0h205.4v205.4H.7V0ZM52.1,325.2v102.7h102.7v-102.7H52.1ZM.7,273.9h205.4v205.4H.7v-205.4ZM428.6,51.4h-102.7v102.7h102.7V51.4h0ZM325.9,0h154.1v205.4h-205.4V0h51.4-.1ZM343.1,273.9v68.5h68.5v-68.5h68.5v68.5h-68.5v68.5h68.5v68.5h-68.5v-68.5h-68.5v68.5h-68.5v-68.5h68.5v-68.5h-68.5v-68.5h68.5Z"/>
</svg>