<?xml version="1.0" encoding="UTF-8"?>
<svg id="Capa_1" xmlns="http://www.w3.org/2000/svg" version="1.1" viewBox="0 0 480 480">
  <!-- Generator: Adobe Illustrator 30.2.1, SVG Export Plug-In . SVG Version: 2.1.1 Build 1)  -->
  <defs>
    <style>
      .st0 {
        fill: #272727;
      }
    </style>
  </defs>
  <path class="st0" d="M193.2,386.2c42.9,0,84.6-14.3,118.4-40.7l127.7,127.7c9.5,9.2,24.7,8.9,34-.6,9-9.3,9-24.1,0-33.4l-127.7-127.7c65.4-84.2,50.2-205.5-34-270.9C227.3-24.8,106-9.6,40.6,74.6-24.8,158.8-9.6,280.1,74.6,345.6c33.9,26.3,75.6,40.6,118.5,40.6h0ZM90.6,90.5c56.7-56.7,148.5-56.7,205.2,0,56.7,56.7,56.7,148.5,0,205.2-56.7,56.7-148.5,56.7-205.2,0h0c-56.7-56.3-57-147.8-.7-204.5l.7-.7h0Z"/>
</svg>